<svg id="Layer_1" data-name="Layer 1" xmlns="http://www.w3.org/2000/svg" viewBox="0 0 118 157"><defs><style>.cls-1{fill:#ffef50;}</style></defs><title>Artboard 5</title><rect class="cls-1" x="11.85" y="140.7" width="1" height="1" transform="translate(161.63 128.84) rotate(90)"/><path class="cls-1" d="M33,148H28.7L28,149.59H26.3L30,141.32h1.7l3.71,8.27h-1.7Zm-2.16-5-1.53,3.52H32.4Z"/><path class="cls-1" d="M43.52,148.55a4.36,4.36,0,0,1-3.15,1.23A4.07,4.07,0,0,1,36,145.51a4.16,4.16,0,0,1,4.38-4.36,4.26,4.26,0,0,1,3,1.27l-1,1a2.85,2.85,0,0,0-2-.78,2.7,2.7,0,0,0-2.84,2.87,2.65,2.65,0,0,0,2.84,2.8,3,3,0,0,0,2.08-.84Z"/><path class="cls-1" d="M50.49,148H46.16l-.7,1.56h-1.7l3.71-8.27h1.71l3.71,8.27h-1.7Zm-2.16-5-1.54,3.52h3.07Z"/><path class="cls-1" d="M61.71,145.38a3.92,3.92,0,0,1-4.13,4.21H54.33v-8.27h3.25A3.9,3.9,0,0,1,61.71,145.38Zm-5.83,2.71h1.7a2.65,2.65,0,0,0,0-5.29h-1.7Z"/><path class="cls-1" d="M69.5,149.59H63.31v-8.27H69.5v1.51H64.86v1.9h4.47v1.46H64.86v1.86H69.5Z"/><path class="cls-1" d="M78.5,143.6l-2.69,3.59H75.5l-2.63-3.6v6H71.31v-8.27H73.1l2.59,3.56,2.59-3.56h1.78v8.27H78.5Z"/><path class="cls-1" d="M85.61,144.73l2.19-3.41h1.88v.07l-3.29,4.78v3.42H84.83v-3.42l-3.18-4.78v-.07H83.5Z"/><path class="cls-1" d="M111.09,27.51,89.56,7.13H19.18V19.72H11.85V131.57H98.5v-7.33h12.59ZM105.83,119H24.44V12.39h63l18.37,17.38Z"/><path class="cls-1" d="M36.16,47.74h-3c-.49,0-.73-.26-.73-.78V24.88c0-.51.24-.77.73-.77h8.34a5.71,5.71,0,0,1,4.27,1.58,6.1,6.1,0,0,1,1.54,4.45V33q0,4.16-3.12,5.51v.15L48,46.85c.21.59,0,.89-.59.89H44.53a2,2,0,0,1-.91-.15,1.11,1.11,0,0,1-.46-.63L39.66,39H37.31c-.28,0-.42.13-.42.4V47C36.89,47.48,36.65,47.74,36.16,47.74Zm1.12-12.46h3.43a2.3,2.3,0,0,0,1.65-.5,2.1,2.1,0,0,0,.52-1.59V30.32a2.22,2.22,0,0,0-.52-1.65,2.25,2.25,0,0,0-1.65-.52H37.28c-.26,0-.39.14-.39.41v6.32A.35.35,0,0,0,37.28,35.28Z"/><path class="cls-1" d="M62.92,47.74H51.46c-.49,0-.73-.26-.73-.78V24.88c0-.51.24-.77.73-.77H62.92c.46,0,.7.26.7.77v2.5c0,.51-.24.77-.7.77H55.6a.37.37,0,0,0-.42.41v4.77a.37.37,0,0,0,.42.41h6c.49,0,.73.25.73.77V37c0,.51-.24.77-.73.77h-6c-.28,0-.42.13-.42.4v5.11c0,.27.14.4.42.4h7.32c.46,0,.7.26.7.78V47C63.62,47.48,63.38,47.74,62.92,47.74Z"/><path class="cls-1" d="M55.35,77.47H51.53a5.69,5.69,0,0,1-4.27-1.54,6.13,6.13,0,0,1-1.51-4.45V59.84a6.13,6.13,0,0,1,1.51-4.45,5.69,5.69,0,0,1,4.27-1.54h3.82a5.69,5.69,0,0,1,4.26,1.56,6.11,6.11,0,0,1,1.52,4.43v1.72c0,.54-.26.81-.77.81H57.42c-.49,0-.74-.27-.74-.81v-1.5a2.44,2.44,0,0,0-.47-1.68,2.15,2.15,0,0,0-1.59-.49H52.23a2.06,2.06,0,0,0-1.55.49,2.39,2.39,0,0,0-.48,1.68v11.2a2.35,2.35,0,0,0,.48,1.67,2.06,2.06,0,0,0,1.55.5h2.39a2.15,2.15,0,0,0,1.59-.5,2.4,2.4,0,0,0,.47-1.67v-1.5c0-.54.25-.81.74-.81h2.94c.51,0,.77.27.77.81v1.72a6.11,6.11,0,0,1-1.52,4.43A5.69,5.69,0,0,1,55.35,77.47Z"/><path class="cls-1" d="M73.42,77.47H69.5a5.69,5.69,0,0,1-4.27-1.54,6.09,6.09,0,0,1-1.51-4.45V59.84a6.09,6.09,0,0,1,1.51-4.45,5.69,5.69,0,0,1,4.27-1.54h3.92a5.71,5.71,0,0,1,4.28,1.54,6.13,6.13,0,0,1,1.5,4.45V71.48a6.13,6.13,0,0,1-1.5,4.45A5.71,5.71,0,0,1,73.42,77.47Zm-3.22-4h2.49a2.12,2.12,0,0,0,1.59-.5,2.35,2.35,0,0,0,.48-1.67V60.06a2.39,2.39,0,0,0-.48-1.68,2.12,2.12,0,0,0-1.59-.49H70.2a2,2,0,0,0-1.57.49,2.45,2.45,0,0,0-.46,1.68v11.2a2.4,2.4,0,0,0,.46,1.67A2,2,0,0,0,70.2,73.43Z"/><path class="cls-1" d="M82.53,76.7V54.62c0-.52.25-.77.74-.77h8.65a5.66,5.66,0,0,1,4.25,1.56,6.07,6.07,0,0,1,1.53,4.43V71.48a6.07,6.07,0,0,1-1.53,4.43,5.66,5.66,0,0,1-4.25,1.56H83.27C82.78,77.47,82.53,77.22,82.53,76.7Zm4.83-3.27h3.82a2.12,2.12,0,0,0,1.59-.5,2.35,2.35,0,0,0,.48-1.67V60.06a2.39,2.39,0,0,0-.48-1.68,2.12,2.12,0,0,0-1.59-.49H87.36c-.25,0-.38.13-.38.4V73C87,73.3,87.11,73.43,87.36,73.43Z"/><path class="cls-1" d="M47.4,83.58h5.19c.48,0,.73.26.73.77v22.09c0,.51-.25.77-.73.77H49.71c-.49,0-.73-.26-.73-.77V89h-.14l-3.57,12.31a.88.88,0,0,1-.88.73H41.45a.86.86,0,0,1-.88-.73L36.93,89h-.14v17.46a1,1,0,0,1-.14.6.79.79,0,0,1-.6.17H33.18c-.49,0-.73-.26-.73-.77V84.35c0-.51.24-.77.73-.77H38.4a.67.67,0,0,1,.67.52l3.71,13H43l3.75-13A.6.6,0,0,1,47.4,83.58Z"/><path class="cls-1" d="M69.19,107.21H57.73c-.49,0-.73-.26-.73-.77V84.35c0-.51.24-.77.73-.77H69.19c.46,0,.7.26.7.77v2.5c0,.52-.24.77-.7.77H61.87a.37.37,0,0,0-.42.41V92.8a.37.37,0,0,0,.42.41h6c.49,0,.73.26.73.77v2.5c0,.51-.24.77-.73.77h-6a.37.37,0,0,0-.42.41v5.1a.37.37,0,0,0,.42.41h7.32c.46,0,.7.25.7.77v2.5C69.89,107,69.65,107.21,69.19,107.21Z"/><path class="cls-1" d="M82.92,108.5H71.36a1,1,0,0,0-1,1.06v1a1,1,0,0,0,1,1.09H82.92a1,1,0,0,0,1-1.09v-1A1,1,0,0,0,82.92,108.5Z"/></svg>